<svg width="20" height="20" viewBox="0 0 20 20" fill="none" xmlns="http://www.w3.org/2000/svg">
<path d="M10 3C6.13438 3 3 6.13438 3 10C3 13.8656 6.13438 17 10 17C13.8656 17 17 13.8656 17 10C17 6.13438 13.8656 3 10 3ZM12.5844 12.6594L11.5531 12.6547L10 10.8031L8.44844 12.6531L7.41563 12.6578C7.34688 12.6578 7.29063 12.6031 7.29063 12.5328C7.29063 12.5031 7.30156 12.475 7.32031 12.4516L9.35313 10.0297L7.32031 7.60938C7.30143 7.58647 7.29096 7.5578 7.29063 7.52812C7.29063 7.45937 7.34688 7.40312 7.41563 7.40312L8.44844 7.40781L10 9.25938L11.5516 7.40938L12.5828 7.40469C12.6516 7.40469 12.7078 7.45937 12.7078 7.52969C12.7078 7.55937 12.6969 7.5875 12.6781 7.61094L10.6484 10.0312L12.6797 12.4531C12.6984 12.4766 12.7094 12.5047 12.7094 12.5344C12.7094 12.6031 12.6531 12.6594 12.5844 12.6594Z" fill="#F44034"/>
</svg>
