<svg width="32" height="33" viewBox="0 0 32 33" fill="none" xmlns="http://www.w3.org/2000/svg">
<g clip-path="url(#clip0_542_45478)">
<path d="M16 32.5C13.8406 32.5 11.7438 32.0781 9.77188 31.2437C7.86563 30.4375 6.15625 29.2812 4.6875 27.8125C3.21875 26.3438 2.0625 24.6344 1.25625 22.7281C0.421875 20.7563 0 18.6594 0 16.5C0 15.8781 0.503125 15.375 1.125 15.375C1.74688 15.375 2.25 15.8781 2.25 16.5C2.25 18.3563 2.6125 20.1562 3.33125 21.8531C4.025 23.4906 5.01563 24.9625 6.27813 26.225C7.54063 27.4875 9.0125 28.4813 10.65 29.1719C12.3438 29.8875 14.1438 30.25 16 30.25C17.8563 30.25 19.6563 29.8875 21.3531 29.1688C22.9906 28.475 24.4625 27.4844 25.725 26.2219C26.9875 24.9594 27.9813 23.4875 28.6719 21.85C29.3875 20.1562 29.75 18.3563 29.75 16.5C29.75 14.6438 29.3875 12.8438 28.6688 11.1469C27.9774 9.51331 26.9767 8.02879 25.7219 6.775C24.4695 5.51849 22.9846 4.51761 21.35 3.82812C19.6563 3.1125 17.8563 2.75 16 2.75C15.3781 2.75 14.875 2.24688 14.875 1.625C14.875 1.00313 15.3781 0.5 16 0.5C18.1594 0.5 20.2563 0.921875 22.2281 1.75625C24.1344 2.5625 25.8438 3.71875 27.3125 5.1875C28.7813 6.65625 29.9344 8.36875 30.7406 10.2719C31.575 12.2438 31.9969 14.3406 31.9969 16.5C31.9969 18.6594 31.575 20.7563 30.7406 22.7281C29.9375 24.6344 28.7813 26.3438 27.3125 27.8125C25.8438 29.2812 24.1313 30.4344 22.2281 31.2406C20.2563 32.0781 18.1594 32.5 16 32.5Z" fill="#1A1657" fill-opacity="0.85"/>
</g>
<defs>
<clipPath id="clip0_542_45478">
<rect width="32" height="32" fill="white" transform="translate(0 0.5)"/>
</clipPath>
</defs>
</svg>
