<svg width="14" height="14" viewBox="0 0 14 14" fill="none" xmlns="http://www.w3.org/2000/svg">
<g clip-path="url(#clip0_271_1266)">
<rect width="14" height="14" fill="white" fill-opacity="0.01"/>
<g clip-path="url(#clip1_271_1266)">
<path d="M3.375 10.752H4.625C4.69375 10.752 4.75 10.6957 4.75 10.627V3.37695C4.75 3.3082 4.69375 3.25195 4.625 3.25195H3.375C3.30625 3.25195 3.25 3.3082 3.25 3.37695V10.627C3.25 10.6957 3.30625 10.752 3.375 10.752ZM6.375 6.37695H7.625C7.69375 6.37695 7.75 6.3207 7.75 6.25195V3.37695C7.75 3.3082 7.69375 3.25195 7.625 3.25195H6.375C6.30625 3.25195 6.25 3.3082 6.25 3.37695V6.25195C6.25 6.3207 6.30625 6.37695 6.375 6.37695ZM9.375 7.50195H10.625C10.6938 7.50195 10.75 7.4457 10.75 7.37695V3.37695C10.75 3.3082 10.6938 3.25195 10.625 3.25195H9.375C9.30625 3.25195 9.25 3.3082 9.25 3.37695V7.37695C9.25 7.4457 9.30625 7.50195 9.375 7.50195ZM12.75 0.751953H1.25C0.973438 0.751953 0.75 0.975391 0.75 1.25195V12.752C0.75 13.0285 0.973438 13.252 1.25 13.252H12.75C13.0266 13.252 13.25 13.0285 13.25 12.752V1.25195C13.25 0.975391 13.0266 0.751953 12.75 0.751953ZM12.125 12.127H1.875V1.87695H12.125V12.127Z" fill="#1A1657" fill-opacity="0.85"/>
</g>
</g>
<defs>
<clipPath id="clip0_271_1266">
<rect width="14" height="14" fill="white"/>
</clipPath>
<clipPath id="clip1_271_1266">
<rect width="14" height="14" fill="white"/>
</clipPath>
</defs>
</svg>
