<svg width="14" height="14" viewBox="0 0 14 14" fill="none" xmlns="http://www.w3.org/2000/svg">
<g clip-path="url(#clip0_271_4876)">
<rect width="14" height="14" fill="white" fill-opacity="0.01"/>
<path d="M9.00938 5.7166H13.0266C13.15 5.7166 13.25 5.6166 13.25 5.49316V1.47441C13.25 1.35098 13.15 1.25098 13.0266 1.25098H9.00938C8.88594 1.25098 8.78594 1.35098 8.78594 1.47441V2.92598H6.66563C6.60469 2.92598 6.55469 2.97598 6.55469 3.03691V6.49785H5.21563V4.99004C5.21563 4.8666 5.11563 4.7666 4.99219 4.7666H0.973438C0.85 4.7666 0.75 4.8666 0.75 4.99004V9.00879C0.75 9.13223 0.85 9.23223 0.973438 9.23223H4.99063C5.11406 9.23223 5.21406 9.13223 5.21406 9.00879V7.50098H6.55313V10.9619C6.55313 11.0229 6.60313 11.0729 6.66406 11.0729H8.78438V12.5244C8.78438 12.6479 8.88438 12.7479 9.00781 12.7479H13.025C13.1484 12.7479 13.2484 12.6479 13.2484 12.5244V8.50879C13.2484 8.38535 13.1484 8.28535 13.025 8.28535H9.00938C8.88594 8.28535 8.78594 8.38535 8.78594 8.50879V10.0713H7.55781V3.93066H8.78594V5.49316C8.78594 5.6166 8.88594 5.7166 9.00938 5.7166ZM9.84531 2.31191H12.1891V4.65723H9.84531V2.31191ZM4.15469 8.17285H1.81094V5.8291H4.15469V8.17285ZM9.84531 9.34629H12.1891V11.6916H9.84531V9.34629Z" fill="#1A1657" fill-opacity="0.85"/>
</g>
<defs>
<clipPath id="clip0_271_4876">
<rect width="14" height="14" fill="white"/>
</clipPath>
</defs>
</svg>
