<svg width="14" height="14" viewBox="0 0 14 14" fill="none" xmlns="http://www.w3.org/2000/svg">
<g clip-path="url(#clip0_271_4857)">
<rect width="14" height="14" fill="white" fill-opacity="0.01"/>
<g clip-path="url(#clip1_271_4857)">
<path d="M12.5938 0.970704H9.37187C9.1 0.970704 8.85781 1.15664 8.79375 1.42852C8.59844 2.25352 7.85938 2.8457 7 2.8457C6.14062 2.8457 5.40156 2.25352 5.20625 1.42852C5.17578 1.29812 5.10205 1.18188 4.99707 1.09874C4.89208 1.01561 4.76204 0.970475 4.62813 0.970704H1.40625C1.22391 0.970704 1.04905 1.04314 0.920114 1.17207C0.791183 1.301 0.71875 1.47587 0.71875 1.6582V5.5957C0.71875 5.77804 0.791183 5.95291 0.920114 6.08184C1.04905 6.21077 1.22391 6.2832 1.40625 6.2832H2.57812V12.3457C2.57812 12.528 2.65056 12.7029 2.77949 12.8318C2.90842 12.9608 3.08329 13.0332 3.26562 13.0332H10.7344C10.9167 13.0332 11.0916 12.9608 11.2205 12.8318C11.3494 12.7029 11.4219 12.528 11.4219 12.3457V6.2832H12.5938C12.7761 6.2832 12.951 6.21077 13.0799 6.08184C13.2088 5.95291 13.2812 5.77804 13.2812 5.5957V1.6582C13.2812 1.47587 13.2088 1.301 13.0799 1.17207C12.951 1.04314 12.7761 0.970704 12.5938 0.970704ZM12.1562 5.1582H10.2969V11.9082H3.70312V5.1582H1.84375V2.0957H4.23906C4.67969 3.2082 5.7625 3.9707 7 3.9707C8.2375 3.9707 9.32031 3.2082 9.76094 2.0957H12.1562V5.1582Z" fill="#1A1657" fill-opacity="0.85"/>
</g>
</g>
<defs>
<clipPath id="clip0_271_4857">
<rect width="14" height="14" fill="white"/>
</clipPath>
<clipPath id="clip1_271_4857">
<rect width="14" height="14" fill="white"/>
</clipPath>
</defs>
</svg>
