<svg width="20" height="21" viewBox="0 0 20 21" fill="none" xmlns="http://www.w3.org/2000/svg">
<path d="M6.60728 3.17648H6.42871C6.52693 3.17648 6.60728 3.09612 6.60728 2.99791V3.17648H13.393V2.99791C13.393 3.09612 13.4734 3.17648 13.5716 3.17648H13.393V4.78362H15.0001V2.99791C15.0001 2.20996 14.3595 1.56934 13.5716 1.56934H6.42871C5.64077 1.56934 5.00014 2.20996 5.00014 2.99791V4.78362H6.60728V3.17648ZM17.8573 4.78362H2.143C1.74791 4.78362 1.42871 5.10282 1.42871 5.49791V6.21219C1.42871 6.31041 1.50907 6.39076 1.60728 6.39076H2.9555L3.50684 18.0649C3.54255 18.826 4.17201 19.4265 4.93318 19.4265H15.0671C15.8305 19.4265 16.4577 18.8283 16.4934 18.0649L17.0448 6.39076H18.393C18.4912 6.39076 18.5716 6.31041 18.5716 6.21219V5.49791C18.5716 5.10282 18.2524 4.78362 17.8573 4.78362ZM14.8952 17.8193H5.10505L4.56487 6.39076H15.4354L14.8952 17.8193Z" fill="#BC261B"/>
</svg>
