<svg width="20" height="21" viewBox="0 0 20 21" fill="none" xmlns="http://www.w3.org/2000/svg">
<path d="M4.32352 15.8551C4.36816 15.8551 4.41281 15.8506 4.45745 15.8439L8.21191 15.1854C8.25656 15.1765 8.29897 15.1564 8.33022 15.1229L17.7923 5.66085C17.813 5.6402 17.8294 5.61567 17.8406 5.58867C17.8518 5.56167 17.8575 5.53272 17.8575 5.50349C17.8575 5.47425 17.8518 5.44531 17.8406 5.4183C17.8294 5.3913 17.813 5.36677 17.7923 5.34612L14.0825 1.63407C14.04 1.59166 13.9842 1.56934 13.924 1.56934C13.8637 1.56934 13.8079 1.59166 13.7655 1.63407L4.30343 11.0961C4.26995 11.1296 4.24986 11.1698 4.24093 11.2144L3.58245 14.9689C3.56074 15.0885 3.56849 15.2115 3.60505 15.3274C3.64162 15.4433 3.70587 15.5486 3.79227 15.6341C3.93959 15.7769 4.12486 15.8551 4.32352 15.8551ZM5.82799 11.9622L13.924 3.86844L15.5601 5.5046L7.46415 13.5984L5.47977 13.9488L5.82799 11.9622ZM18.2141 17.7301H1.78557C1.39049 17.7301 1.07129 18.0492 1.07129 18.4443V19.2479C1.07129 19.3461 1.15165 19.4265 1.24986 19.4265H18.7499C18.8481 19.4265 18.9284 19.3461 18.9284 19.2479V18.4443C18.9284 18.0492 18.6092 17.7301 18.2141 17.7301Z" fill="#3E34CA"/>
</svg>
