<svg width="12" height="12" viewBox="0 0 12 12" fill="none" xmlns="http://www.w3.org/2000/svg">
<g clip-path="url(#clip0_347_21401)">
<path d="M6 0.00195312C2.68661 0.00195312 0 2.68856 0 6.00195C0 9.31535 2.68661 12.002 6 12.002C9.31339 12.002 12 9.31535 12 6.00195C12 2.68856 9.31339 0.00195312 6 0.00195312ZM6 10.9841C3.24911 10.9841 1.01786 8.75285 1.01786 6.00195C1.01786 3.25106 3.24911 1.01981 6 1.01981C8.75089 1.01981 10.9821 3.25106 10.9821 6.00195C10.9821 8.75285 8.75089 10.9841 6 10.9841Z" fill="#888791"/>
<path d="M5.35693 3.64481C5.35693 3.81531 5.42466 3.97882 5.54522 4.09938C5.66578 4.21994 5.82929 4.28767 5.99979 4.28767C6.17029 4.28767 6.3338 4.21994 6.45436 4.09938C6.57492 3.97882 6.64265 3.81531 6.64265 3.64481C6.64265 3.47431 6.57492 3.3108 6.45436 3.19024C6.3338 3.06968 6.17029 3.00195 5.99979 3.00195C5.82929 3.00195 5.66578 3.06968 5.54522 3.19024C5.42466 3.3108 5.35693 3.47431 5.35693 3.64481ZM6.32122 5.14481H5.67836C5.61943 5.14481 5.57122 5.19302 5.57122 5.25195V8.89481C5.57122 8.95374 5.61943 9.00195 5.67836 9.00195H6.32122C6.38015 9.00195 6.42836 8.95374 6.42836 8.89481V5.25195C6.42836 5.19302 6.38015 5.14481 6.32122 5.14481Z" fill="#888791"/>
</g>
<defs>
<clipPath id="clip0_347_21401">
<rect width="12" height="12" fill="white" transform="translate(0 0.00195312)"/>
</clipPath>
</defs>
</svg>
