<svg width="77" height="32" viewBox="0 0 77 32" fill="none" xmlns="http://www.w3.org/2000/svg">
<rect y="13.163" width="77" height="1.81561" fill="#BC261B"/>
<path d="M4.23651 30.22C3.62033 30.22 3.10544 30.1019 2.69184 29.8655C2.27825 29.6207 1.96594 29.2662 1.75492 28.802C1.5439 28.3377 1.42573 27.768 1.40041 27.0927L3.00837 26.7762C3.02526 27.1729 3.07168 27.5232 3.14765 27.8271C3.23205 28.1309 3.35445 28.3673 3.51482 28.5361C3.68364 28.6965 3.9031 28.7766 4.1732 28.7766C4.47707 28.7766 4.69231 28.688 4.81892 28.5108C4.94553 28.3251 5.00884 28.0929 5.00884 27.8144C5.00884 27.367 4.90755 26.9999 4.70497 26.7129C4.50239 26.4259 4.23229 26.1389 3.89466 25.8519L2.60322 24.7124C2.24026 24.4001 1.94906 24.054 1.7296 23.6742C1.51858 23.2859 1.41307 22.809 1.41307 22.2435C1.41307 21.4332 1.64941 20.8086 2.12209 20.3696C2.59478 19.9307 3.2405 19.7113 4.05925 19.7113C4.54037 19.7113 4.94131 19.7872 5.26206 19.9392C5.58281 20.0826 5.83603 20.2852 6.02173 20.5469C6.21587 20.8086 6.35936 21.1082 6.45221 21.4458C6.54506 21.775 6.60414 22.1253 6.62947 22.4967L5.03416 22.7753C5.01728 22.4545 4.97929 22.1675 4.92021 21.9143C4.86957 21.6611 4.7725 21.4627 4.629 21.3192C4.49395 21.1757 4.29137 21.104 4.02127 21.104C3.74272 21.104 3.52748 21.1968 3.37555 21.3825C3.23205 21.5598 3.16031 21.7835 3.16031 22.0536C3.16031 22.3996 3.23205 22.6866 3.37555 22.9145C3.51904 23.134 3.72584 23.3619 3.99594 23.5982L5.27472 24.7251C5.69676 25.0796 6.05549 25.4974 6.35092 25.9785C6.65479 26.4512 6.80672 27.0252 6.80672 27.7005C6.80672 28.19 6.69699 28.6247 6.47753 29.0046C6.26651 29.3844 5.96687 29.684 5.57859 29.9035C5.19876 30.1145 4.75139 30.22 4.23651 30.22ZM8.35317 30.0807L6.89713 19.8252H8.46712L9.31541 26.4723L10.379 19.8505H11.6577L12.7466 26.4723L13.5822 19.8252H15.1269L13.6962 30.0807H12.1768L11.0373 23.2057L9.91049 30.0807H8.35317ZM15.7082 30.0807V19.8252H17.5567V30.0807H15.7082ZM18.5113 30.0807V19.8252H22.7274V21.1166H20.3851V24.1047H22.297V25.4088H20.3851V30.0807H18.5113ZM24.1339 30.0807V21.2053H22.5006V19.8252H27.6157V21.2053H26.0078V30.0807H24.1339ZM32.9442 30.22C32.328 30.22 31.8131 30.1019 31.3996 29.8655C30.986 29.6207 30.6736 29.2662 30.4626 28.802C30.2516 28.3377 30.1334 27.768 30.1081 27.0927L31.7161 26.7762C31.733 27.1729 31.7794 27.5232 31.8554 27.8271C31.9398 28.1309 32.0622 28.3673 32.2225 28.5361C32.3913 28.6965 32.6108 28.7766 32.8809 28.7766C33.1848 28.7766 33.4 28.688 33.5266 28.5108C33.6532 28.3251 33.7165 28.0929 33.7165 27.8144C33.7165 27.367 33.6153 26.9999 33.4127 26.7129C33.2101 26.4259 32.94 26.1389 32.6024 25.8519L31.3109 24.7124C30.948 24.4001 30.6568 24.054 30.4373 23.6742C30.2263 23.2859 30.1208 22.809 30.1208 22.2435C30.1208 21.4332 30.3571 20.8086 30.8298 20.3696C31.3025 19.9307 31.9482 19.7113 32.767 19.7113C33.2481 19.7113 33.649 19.7872 33.9698 19.9392C34.2905 20.0826 34.5437 20.2852 34.7294 20.5469C34.9236 20.8086 35.0671 21.1082 35.1599 21.4458C35.2528 21.775 35.3119 22.1253 35.3372 22.4967L33.7419 22.7753C33.725 22.4545 33.687 22.1675 33.6279 21.9143C33.5773 21.6611 33.4802 21.4627 33.3367 21.3192C33.2017 21.1757 32.9991 21.104 32.729 21.104C32.4504 21.104 32.2352 21.1968 32.0833 21.3825C31.9398 21.5598 31.868 21.7835 31.868 22.0536C31.868 22.3996 31.9398 22.6866 32.0833 22.9145C32.2267 23.134 32.4335 23.3619 32.7037 23.5982L33.9824 24.7251C34.4045 25.0796 34.7632 25.4974 35.0586 25.9785C35.3625 26.4512 35.5144 27.0252 35.5144 27.7005C35.5144 28.19 35.4047 28.6247 35.1852 29.0046C34.9742 29.3844 34.6746 29.684 34.2863 29.9035C33.9065 30.1145 33.4591 30.22 32.9442 30.22ZM38.7448 30.22C37.9936 30.22 37.4027 30.0723 36.9722 29.7769C36.5502 29.4815 36.2548 29.0805 36.086 28.5741C35.9171 28.0592 35.8327 27.4683 35.8327 26.8015V23.1424C35.8327 22.4418 35.9171 21.8341 36.086 21.3192C36.2548 20.8043 36.5502 20.4076 36.9722 20.1291C37.4027 19.8505 37.9936 19.7113 38.7448 19.7113C39.4538 19.7113 40.0067 19.8336 40.4034 20.0784C40.8086 20.3148 41.0956 20.6566 41.2644 21.104C41.4332 21.5513 41.5176 22.0705 41.5176 22.6613V23.5223H39.7197V22.636C39.7197 22.349 39.7028 22.0873 39.6691 21.851C39.6437 21.6147 39.5636 21.429 39.4285 21.2939C39.3019 21.1504 39.0782 21.0787 38.7575 21.0787C38.4367 21.0787 38.2004 21.1546 38.0484 21.3066C37.9049 21.4501 37.8121 21.6484 37.7699 21.9016C37.7277 22.1464 37.7066 22.425 37.7066 22.7373V27.194C37.7066 27.5654 37.7361 27.8735 37.7952 28.1183C37.8543 28.3546 37.9598 28.5361 38.1117 28.6627C38.2721 28.7809 38.4874 28.84 38.7575 28.84C39.0698 28.84 39.2892 28.7682 39.4158 28.6247C39.5509 28.4728 39.6353 28.2744 39.6691 28.0296C39.7028 27.7849 39.7197 27.5105 39.7197 27.2067V26.2824H41.5176V27.1054C41.5176 27.7131 41.4374 28.2533 41.277 28.726C41.1167 29.1902 40.8339 29.5574 40.4287 29.8275C40.032 30.0892 39.4707 30.22 38.7448 30.22ZM42.2145 30.0807V19.8252H44.0756V24.1173H46.1647V19.8252H48.0386V30.0807H46.1647V25.4468H44.0756V30.0807H42.2145ZM48.9747 30.0807V19.8252H53.2795V21.142H50.8486V24.092H52.7604V25.3961H50.8486V28.7893H53.3048V30.0807H48.9747ZM53.7573 30.0807V19.8252H56.1756C57.0112 19.8252 57.6611 19.9392 58.1254 20.1671C58.5981 20.395 58.9315 20.7453 59.1256 21.2179C59.3282 21.6906 59.4295 22.2899 59.4295 23.0158V26.7635C59.4295 27.5063 59.3282 28.1267 59.1256 28.6247C58.9315 29.1143 58.6023 29.4815 58.138 29.7262C57.6822 29.9626 57.0534 30.0807 56.2515 30.0807H53.7573ZM55.6311 28.7766H56.2009C56.6314 28.7766 56.9395 28.7007 57.1252 28.5487C57.3109 28.3968 57.4248 28.1774 57.467 27.8904C57.5092 27.5949 57.5303 27.2362 57.5303 26.8142V22.8892C57.5303 22.4756 57.5008 22.1422 57.4417 21.889C57.3826 21.6358 57.2602 21.4501 57.0745 21.3319C56.8888 21.2137 56.5892 21.1546 56.1756 21.1546H55.6311V28.7766ZM62.9827 30.22C62.2231 30.22 61.6322 30.0807 61.2102 29.8022C60.7881 29.5237 60.4969 29.1269 60.3365 28.6121C60.1762 28.0972 60.096 27.481 60.096 26.7635V19.8252H61.9192V26.9788C61.9192 27.2995 61.9403 27.6034 61.9825 27.8904C62.0247 28.1689 62.1218 28.3968 62.2737 28.5741C62.4341 28.7429 62.6704 28.8273 62.9827 28.8273C63.3119 28.8273 63.5483 28.7429 63.6918 28.5741C63.8437 28.3968 63.9408 28.1689 63.983 27.8904C64.0336 27.6034 64.0589 27.2995 64.0589 26.9788V19.8252H65.8695V26.7635C65.8695 27.481 65.7893 28.0972 65.6289 28.6121C65.4685 29.1269 65.1773 29.5237 64.7553 29.8022C64.3417 30.0807 63.7508 30.22 62.9827 30.22ZM66.7103 30.0807V19.8252H68.5841V28.7893H71.0657V30.0807H66.7103ZM71.4063 30.0807V19.8252H75.7111V21.142H73.2801V24.092H75.1919V25.3961H73.2801V28.7893H75.7364V30.0807H71.4063Z" fill="#BC261B"/>
<g clip-path="url(#clip0_91_20445)">
<mask id="mask0_91_20445" style="mask-type:alpha" maskUnits="userSpaceOnUse" x="-12" y="-1" width="103" height="15">
<rect x="-11.4985" y="-0.593872" width="101.593" height="13.6645" fill="#D9D9D9"/>
</mask>
<g mask="url(#mask0_91_20445)">
<path d="M38.6957 25.5508C45.6398 25.5508 51.2691 20.0041 51.2691 13.1619C51.2691 6.31976 45.6398 0.773071 38.6957 0.773071C31.7516 0.773071 26.1223 6.31976 26.1223 13.1619C26.1223 20.0041 31.7516 25.5508 38.6957 25.5508Z" stroke="#BC261B" stroke-width="1.5377" stroke-miterlimit="10"/>
<path d="M26.1235 12.9734C33.7362 8.0638 43.6545 8.0638 51.2672 12.9734" stroke="#BC261B" stroke-width="1.5377" stroke-miterlimit="10"/>
<path d="M46.1578 23.1333C46.379 22.1985 46.4874 21.2497 46.4874 20.3056C46.4874 17.5067 45.5328 14.7461 43.7092 12.5001C42.9931 11.6179 42.6248 10.5401 42.6248 9.45347C42.6248 8.71117 42.7966 7.96474 43.1471 7.27406C44.0283 5.53807 45.8519 4.50773 47.7673 4.58309" stroke="#BC261B" stroke-width="1.5377" stroke-miterlimit="10"/>
<path d="M29.6238 4.58309C31.5392 4.50773 33.3628 5.53807 34.244 7.27406C34.5944 7.96474 34.7663 8.71117 34.7663 9.45347C34.7663 10.5401 34.398 11.6179 33.6818 12.5001C31.8582 14.7461 30.9036 17.5067 30.9036 20.3056C30.9036 21.2497 31.0121 22.1985 31.2332 23.1333" stroke="#BC261B" stroke-width="1.5377" stroke-miterlimit="10"/>
<path d="M38.6958 0.773193V25.5509" stroke="#BC261B" stroke-width="1.5377" stroke-miterlimit="10"/>
</g>
</g>
<defs>
<clipPath id="clip0_91_20445">
<rect width="26.7185" height="26.3264" fill="white" transform="translate(25.3364)"/>
</clipPath>
</defs>
</svg>
