<svg width="21" height="17" viewBox="0 0 21 17" fill="none" xmlns="http://www.w3.org/2000/svg">
<path d="M0.176458 16L0.437698 0.885399H3.29268L5.43858 11.3537L7.67778 0.885399H10.4395L10.7194 16H8.66676L8.44284 5.49442L6.29694 16H4.6362L2.45298 5.4571L2.24772 16H0.176458ZM16.6487 16.2053C15.7406 16.2053 14.9818 16.0311 14.3722 15.6828C13.7626 15.322 13.3024 14.7995 12.9914 14.1153C12.6804 13.4311 12.5062 12.5914 12.4689 11.5962L14.8387 11.1297C14.8636 11.7144 14.932 12.2307 15.044 12.6785C15.1684 13.1264 15.3487 13.4747 15.5851 13.7235C15.8339 13.9598 16.1573 14.078 16.5554 14.078C17.0033 14.078 17.3205 13.9474 17.5071 13.6862C17.6937 13.4125 17.787 13.0704 17.787 12.6599C17.787 12.0005 17.6377 11.4594 17.3391 11.0364C17.0406 10.6135 16.6425 10.1905 16.1449 9.76756L14.2416 8.08816C13.7067 7.62788 13.2775 7.11784 12.954 6.55804C12.643 5.9858 12.4875 5.28294 12.4875 4.44946C12.4875 3.25522 12.8359 2.33466 13.5325 1.68778C14.2291 1.0409 15.1808 0.717459 16.3875 0.717459C17.0966 0.717459 17.6875 0.829419 18.1602 1.05334C18.6329 1.26482 19.0061 1.56338 19.2798 1.94902C19.5659 2.33466 19.7774 2.77628 19.9142 3.27388C20.0511 3.75904 20.1381 4.2753 20.1755 4.82266L17.8243 5.23318C17.7994 4.76046 17.7434 4.3375 17.6564 3.9643C17.5817 3.5911 17.4387 3.29876 17.2272 3.08728C17.0281 2.8758 16.7296 2.77006 16.3315 2.77006C15.921 2.77006 15.6038 2.9069 15.3798 3.18058C15.1684 3.44182 15.0626 3.77148 15.0626 4.16956C15.0626 4.6796 15.1684 5.10256 15.3798 5.43844C15.5913 5.76188 15.8961 6.09776 16.2942 6.44608L18.1788 8.10682C18.8008 8.6293 19.3295 9.24508 19.7649 9.95416C20.2128 10.6508 20.4367 11.4967 20.4367 12.4919C20.4367 13.2134 20.275 13.8541 19.9515 14.4139C19.6405 14.9737 19.1989 15.4153 18.6267 15.7388C18.0669 16.0498 17.4076 16.2053 16.6487 16.2053Z" fill="#BC261B"/>
</svg>
