<svg width="20" height="21" viewBox="0 0 20 21" fill="none" xmlns="http://www.w3.org/2000/svg">
<path d="M2.32148 10.3269C2.34381 9.35142 2.5447 8.405 2.92193 7.51437C3.30809 6.59919 3.86166 5.77999 4.56702 5.07241C5.27238 4.36482 6.09381 3.81124 7.00898 3.42508C7.95541 3.02553 8.95988 2.82241 9.99782 2.82241C11.0358 2.82241 12.0402 3.02553 12.9844 3.42508C13.897 3.81045 14.7257 4.36999 15.4242 5.07241C15.6451 5.29339 15.8527 5.52776 16.0447 5.7733L14.7009 6.82241C14.6744 6.84297 14.6541 6.87063 14.6425 6.90219C14.631 6.93375 14.6286 6.96793 14.6355 7.00081C14.6425 7.03369 14.6587 7.06392 14.6821 7.08804C14.7055 7.11216 14.7353 7.12918 14.7679 7.13714L18.6898 8.09696C18.8014 8.12374 18.9108 8.03892 18.9108 7.92508L18.9286 3.88714C18.9286 3.73758 18.7568 3.65276 18.6407 3.74651L17.3818 4.73089C15.6652 2.53446 12.9956 1.12598 9.99559 1.12598C4.88175 1.12598 0.721038 5.22419 0.625056 10.3179C0.62446 10.3418 0.628639 10.3655 0.637346 10.3876C0.646053 10.4098 0.659112 10.43 0.675753 10.4471C0.692395 10.4642 0.712282 10.4777 0.734244 10.487C0.756205 10.4962 0.779796 10.501 0.803627 10.501H2.14291C2.24113 10.501 2.31925 10.4229 2.32148 10.3269ZM19.1965 10.501H17.8572C17.759 10.501 17.6809 10.5791 17.6786 10.6751C17.6563 11.6505 17.4554 12.597 17.0782 13.4876C16.692 14.4028 16.1384 15.2242 15.4331 15.9296C14.7211 16.6444 13.8747 17.2113 12.9426 17.5975C12.0105 17.9836 11.0112 18.1815 10.0023 18.1796C8.9937 18.1814 7.99473 17.9836 7.063 17.5974C6.13128 17.2112 5.28524 16.6444 4.57372 15.9296C4.35273 15.7086 4.14515 15.4742 3.95318 15.2287L5.29693 14.1795C5.32352 14.159 5.34376 14.1313 5.35533 14.0998C5.3669 14.0682 5.36933 14.034 5.36233 14.0011C5.35533 13.9683 5.3392 13.938 5.31579 13.9139C5.29237 13.8898 5.26262 13.8728 5.22997 13.8648L1.30809 12.905C1.19648 12.8782 1.08711 12.963 1.08711 13.0769L1.07148 17.1171C1.07148 17.2666 1.24336 17.3514 1.35943 17.2577L2.61836 16.2733C4.33488 18.4675 7.00452 19.876 10.0045 19.876C15.1206 19.876 19.2791 15.7755 19.3751 10.684C19.3757 10.6602 19.3715 10.6365 19.3628 10.6143C19.3541 10.5921 19.341 10.5719 19.3244 10.5548C19.3077 10.5378 19.2878 10.5242 19.2659 10.515C19.2439 10.5057 19.2203 10.501 19.1965 10.501Z" fill="#3E34CA"/>
</svg>
