<svg width="12" height="12" viewBox="0 0 12 12" fill="none" xmlns="http://www.w3.org/2000/svg">
<g clip-path="url(#clip0_265_1310)">
<path d="M10.7681 8.94705H9.82653C9.76225 8.94705 9.70198 8.97517 9.6618 9.02472C9.56805 9.13857 9.4676 9.24839 9.3618 9.35285C8.92907 9.78602 8.41649 10.1312 7.85243 10.3694C7.26804 10.6162 6.63993 10.7428 6.00555 10.7417C5.36403 10.7417 4.7426 10.6158 4.15868 10.3694C3.59461 10.1312 3.08203 9.78602 2.6493 9.35285C2.21579 8.92115 1.87013 8.40947 1.63144 7.84615C1.38368 7.26223 1.25912 6.64214 1.25912 6.00062C1.25912 5.3591 1.38501 4.73901 1.63144 4.15508C1.86984 3.59124 2.21269 3.08365 2.6493 2.64839C3.08591 2.21312 3.5935 1.87026 4.15868 1.63187C4.7426 1.38544 5.36403 1.25955 6.00555 1.25955C6.64707 1.25955 7.2685 1.3841 7.85243 1.63187C8.4176 1.87026 8.92519 2.21312 9.3618 2.64839C9.4676 2.75419 9.56671 2.86401 9.6618 2.97651C9.70198 3.02606 9.76359 3.05419 9.82653 3.05419H10.7681C10.8524 3.05419 10.9047 2.96044 10.8578 2.88946C9.83055 1.29303 8.03323 0.236332 5.99082 0.241689C2.78189 0.249725 0.209122 2.85464 0.241265 6.05955C0.273408 9.21356 2.84216 11.7595 6.00555 11.7595C8.0426 11.7595 9.83189 10.7042 10.8578 9.11178C10.9033 9.0408 10.8524 8.94705 10.7681 8.94705ZM11.9587 5.91624L10.0582 4.41624C9.98725 4.35999 9.88412 4.41089 9.88412 4.50062V5.51848H5.67877C5.61984 5.51848 5.57162 5.56669 5.57162 5.62562V6.37562C5.57162 6.43455 5.61984 6.48276 5.67877 6.48276H9.88412V7.50062C9.88412 7.59035 9.98859 7.64124 10.0582 7.58499L11.9587 6.08499C11.9715 6.07497 11.9818 6.06216 11.989 6.04755C11.9961 6.03293 11.9998 6.01688 11.9998 6.00062C11.9998 5.98436 11.9961 5.96831 11.989 5.95369C11.9818 5.93907 11.9715 5.92627 11.9587 5.91624Z" fill="#BC261B"/>
</g>
<defs>
<clipPath id="clip0_265_1310">
<rect width="12" height="12" fill="white"/>
</clipPath>
</defs>
</svg>
