<svg width="16" height="17" viewBox="0 0 16 17" fill="none" xmlns="http://www.w3.org/2000/svg">
<g clip-path="url(#clip0_260_5517)">
<path d="M13.4271 13.0692H12.9985V6.99777C12.9985 4.47813 11.136 2.39598 8.71282 2.04955V1.35491C8.71282 0.960268 8.39318 0.640625 7.99854 0.640625C7.60389 0.640625 7.28425 0.960268 7.28425 1.35491V2.04955C4.86104 2.39598 2.99854 4.47813 2.99854 6.99777V13.0692H2.56996C2.25389 13.0692 1.99854 13.3246 1.99854 13.6406V14.2121C1.99854 14.2906 2.06282 14.3549 2.14139 14.3549H5.99854C5.99854 15.4585 6.89496 16.3549 7.99854 16.3549C9.10211 16.3549 9.99854 15.4585 9.99854 14.3549H13.8557C13.9342 14.3549 13.9985 14.2906 13.9985 14.2121V13.6406C13.9985 13.3246 13.7432 13.0692 13.4271 13.0692ZM7.99854 15.2121C7.52532 15.2121 7.14139 14.8281 7.14139 14.3549H8.85568C8.85568 14.8281 8.47175 15.2121 7.99854 15.2121ZM4.28425 13.0692V6.99777C4.28425 6.00491 4.66996 5.07277 5.37175 4.37098C6.07354 3.6692 7.00568 3.28348 7.99854 3.28348C8.99139 3.28348 9.92353 3.6692 10.6253 4.37098C11.3271 5.07277 11.7128 6.00491 11.7128 6.99777V13.0692H4.28425Z" fill="#1A1657"/>
</g>
<defs>
<clipPath id="clip0_260_5517">
<rect width="16" height="16" fill="white" transform="translate(-0.00146484 0.5)"/>
</clipPath>
</defs>
</svg>
