<svg width="14" height="15" viewBox="0 0 14 15" fill="none" xmlns="http://www.w3.org/2000/svg">
<g clip-path="url(#clip0_260_7800)">
<path d="M6.99756 0.5C3.13193 0.5 -0.00244141 3.63437 -0.00244141 7.5C-0.00244141 11.3656 3.13193 14.5 6.99756 14.5C10.8632 14.5 13.9976 11.3656 13.9976 7.5C13.9976 3.63437 10.8632 0.5 6.99756 0.5ZM6.99756 13.3125C3.78818 13.3125 1.18506 10.7094 1.18506 7.5C1.18506 4.29063 3.78818 1.6875 6.99756 1.6875C10.2069 1.6875 12.8101 4.29063 12.8101 7.5C12.8101 10.7094 10.2069 13.3125 6.99756 13.3125Z" fill="#1A1657"/>
<path d="M8.74107 4.44795C8.27232 4.03701 7.65356 3.81201 6.99731 3.81201C6.34106 3.81201 5.72231 4.03857 5.25356 4.44795C4.76606 4.87451 4.49731 5.44795 4.49731 6.06201V6.18076C4.49731 6.24951 4.55356 6.30576 4.62231 6.30576H5.37231C5.44106 6.30576 5.49731 6.24951 5.49731 6.18076V6.06201C5.49731 5.37295 6.17075 4.81201 6.99731 4.81201C7.82388 4.81201 8.49731 5.37295 8.49731 6.06201C8.49731 6.54795 8.15357 6.99326 7.62075 7.19795C7.2895 7.32451 7.00825 7.54639 6.80669 7.83701C6.602 8.13389 6.49575 8.49014 6.49575 8.85107V9.18701C6.49575 9.25576 6.552 9.31201 6.62075 9.31201H7.37075C7.4395 9.31201 7.49575 9.25576 7.49575 9.18701V8.83232C7.49656 8.68064 7.54306 8.53272 7.62918 8.40785C7.71531 8.28298 7.83706 8.18697 7.97856 8.13232C8.90044 7.77764 9.49575 6.96514 9.49575 6.06201C9.49732 5.44795 9.22857 4.87451 8.74107 4.44795ZM6.37231 10.937C6.37231 11.1028 6.43816 11.2617 6.55537 11.379C6.67258 11.4962 6.83155 11.562 6.99731 11.562C7.16307 11.562 7.32205 11.4962 7.43926 11.379C7.55647 11.2617 7.62231 11.1028 7.62231 10.937C7.62231 10.7713 7.55647 10.6123 7.43926 10.4951C7.32205 10.3779 7.16307 10.312 6.99731 10.312C6.83155 10.312 6.67258 10.3779 6.55537 10.4951C6.43816 10.6123 6.37231 10.7713 6.37231 10.937Z" fill="#1A1657"/>
</g>
<defs>
<clipPath id="clip0_260_7800">
<rect width="14" height="14" fill="white" transform="translate(-0.00244141 0.5)"/>
</clipPath>
</defs>
</svg>
