<svg width="14" height="15" viewBox="0 0 14 15" fill="none" xmlns="http://www.w3.org/2000/svg">
<g clip-path="url(#clip0_260_20090)">
<path d="M13.2101 12.8535L9.15225 8.7957C9.78193 7.98164 10.1226 6.98633 10.1226 5.93945C10.1226 4.68633 9.6335 3.51133 8.74912 2.62539C7.86475 1.73945 6.68662 1.25195 5.43506 1.25195C4.1835 1.25195 3.00537 1.74102 2.121 2.62539C1.23506 3.50977 0.747559 4.68633 0.747559 5.93945C0.747559 7.19102 1.23662 8.36914 2.121 9.25352C3.00537 10.1395 4.18193 10.627 5.43506 10.627C6.48193 10.627 7.47568 10.2863 8.28975 9.6582L12.3476 13.7145C12.3595 13.7264 12.3736 13.7358 12.3891 13.7422C12.4047 13.7487 12.4214 13.752 12.4382 13.752C12.455 13.752 12.4717 13.7487 12.4872 13.7422C12.5028 13.7358 12.5169 13.7264 12.5288 13.7145L13.2101 13.0348C13.222 13.0229 13.2314 13.0087 13.2379 12.9932C13.2443 12.9776 13.2476 12.961 13.2476 12.9441C13.2476 12.9273 13.2443 12.9106 13.2379 12.8951C13.2314 12.8795 13.222 12.8654 13.2101 12.8535ZM7.91006 8.41445C7.24756 9.07539 6.36943 9.43945 5.43506 9.43945C4.50068 9.43945 3.62256 9.07539 2.96006 8.41445C2.29912 7.75195 1.93506 6.87383 1.93506 5.93945C1.93506 5.00508 2.29912 4.12539 2.96006 3.46445C3.62256 2.80352 4.50068 2.43945 5.43506 2.43945C6.36943 2.43945 7.24912 2.80195 7.91006 3.46445C8.571 4.12695 8.93506 5.00508 8.93506 5.93945C8.93506 6.87383 8.571 7.75352 7.91006 8.41445Z" fill="#1A1657"/>
</g>
<defs>
<clipPath id="clip0_260_20090">
<rect width="14" height="14" fill="white" transform="translate(-0.00244141 0.5)"/>
</clipPath>
</defs>
</svg>
