<svg width="16" height="16" viewBox="0 0 16 16" fill="none" xmlns="http://www.w3.org/2000/svg">
<g clip-path="url(#clip0_347_39781)">
<rect width="16" height="16" fill="#BC261B"/>
<rect x="0.625" y="4.8125" width="14.6875" height="0.5" fill="white"/>
<g clip-path="url(#clip1_347_39781)">
<mask id="mask0_347_39781" style="mask-type:alpha" maskUnits="userSpaceOnUse" x="-6" y="1" width="28" height="4">
<rect x="-5.35156" y="1.15332" width="27.184" height="3.65633" fill="#D9D9D9"/>
</mask>
<g mask="url(#mask0_347_39781)">
<path d="M8.03161 8.14951C9.86557 8.14951 11.3523 6.66534 11.3523 4.83452C11.3523 3.0037 9.86557 1.51953 8.03161 1.51953C6.19765 1.51953 4.71094 3.0037 4.71094 4.83452C4.71094 6.66534 6.19765 8.14951 8.03161 8.14951Z" stroke="white" stroke-width="0.411454" stroke-miterlimit="10"/>
<path d="M4.71094 4.78411C6.72147 3.4704 9.34093 3.4704 11.3514 4.78411" stroke="white" stroke-width="0.411454" stroke-miterlimit="10"/>
<path d="M10.0034 7.50275C10.0618 7.25262 10.0905 6.99875 10.0905 6.74612C10.0905 5.9972 9.83834 5.25852 9.35672 4.65754C9.16758 4.42148 9.07031 4.13308 9.07031 3.84233C9.07031 3.6437 9.1157 3.44398 9.20826 3.25917C9.44098 2.79465 9.92262 2.51895 10.4285 2.53912" stroke="white" stroke-width="0.411454" stroke-miterlimit="10"/>
<path d="M5.63672 2.53912C6.14258 2.51895 6.6242 2.79465 6.85693 3.25916C6.94948 3.44398 6.99488 3.6437 6.99488 3.84233C6.99488 4.13308 6.89761 4.42148 6.70847 4.65754C6.22683 5.25852 5.97474 5.9972 5.97474 6.74612C5.97474 6.99875 6.00338 7.25262 6.06177 7.50275" stroke="white" stroke-width="0.411454" stroke-miterlimit="10"/>
<path d="M8.03125 1.51953V8.14951" stroke="white" stroke-width="0.411454" stroke-miterlimit="10"/>
</g>
</g>
<path d="M4.88382 9.92011C4.68423 9.92011 4.51745 9.88184 4.38347 9.80528C4.2495 9.72599 4.14833 9.61115 4.07998 9.46077C4.01162 9.31039 3.97335 9.12584 3.96514 8.9071L4.486 8.80457C4.49147 8.93308 4.50651 9.04655 4.53112 9.14498C4.55846 9.24341 4.5981 9.31996 4.65005 9.37465C4.70474 9.4266 4.77582 9.45257 4.86332 9.45257C4.96175 9.45257 5.03147 9.42386 5.07248 9.36644C5.11349 9.30629 5.134 9.2311 5.134 9.14088C5.134 8.99597 5.10119 8.87703 5.03557 8.78407C4.96995 8.69111 4.88246 8.59814 4.77309 8.50518L4.35476 8.13607C4.23719 8.03491 4.14286 7.9228 4.07178 7.79977C4.00342 7.674 3.96925 7.51952 3.96925 7.33633C3.96925 7.07385 4.0458 6.87152 4.19892 6.72934C4.35203 6.58716 4.56119 6.51608 4.82641 6.51608C4.98225 6.51608 5.11213 6.54068 5.21603 6.5899C5.31992 6.63638 5.40195 6.702 5.4621 6.78676C5.52499 6.87152 5.57147 6.96858 5.60154 7.07795C5.63162 7.18458 5.65076 7.29805 5.65896 7.41835L5.1422 7.50858C5.13673 7.40468 5.12443 7.31172 5.10529 7.22969C5.08889 7.14767 5.05744 7.08342 5.01096 7.03693C4.96722 6.99045 4.9016 6.96721 4.8141 6.96721C4.72388 6.96721 4.65415 6.99729 4.60494 7.05744C4.55846 7.11486 4.53522 7.18731 4.53522 7.27481C4.53522 7.38691 4.55846 7.47987 4.60494 7.55369C4.65142 7.62478 4.71841 7.6986 4.8059 7.77516L5.22013 8.14017C5.35683 8.25501 5.47304 8.39035 5.56873 8.54619C5.66716 8.69931 5.71638 8.88523 5.71638 9.10396C5.71638 9.26255 5.68083 9.40336 5.60975 9.52639C5.54139 9.64943 5.44433 9.74649 5.31856 9.81758C5.19552 9.88594 5.05061 9.92011 4.88382 9.92011ZM6.21731 9.875L5.74566 6.55299H6.25422L6.529 8.70614L6.87351 6.56119H7.28773L7.64044 8.70614L7.91112 6.55299H8.41148L7.94803 9.875H7.45588L7.08677 7.64802L6.72176 9.875H6.21731ZM8.59978 9.875V6.55299H9.19856V9.875H8.59978ZM9.50776 9.875V6.55299H10.8735V6.97131H10.1147V7.93921H10.734V8.36164H10.1147V9.875H9.50776ZM11.3291 9.875V7.00002H10.8V6.55299H12.4569V7.00002H11.9361V9.875H11.3291Z" fill="white"/>
<path d="M1.90677 13.6681C1.7163 13.6681 1.55714 13.6315 1.42929 13.5585C1.30144 13.4828 1.2049 13.3732 1.13967 13.2297C1.07444 13.0862 1.03792 12.9101 1.03009 12.7014L1.52713 12.6035C1.53235 12.7261 1.5467 12.8344 1.57019 12.9284C1.59628 13.0223 1.63411 13.0953 1.68368 13.1475C1.73587 13.1971 1.80371 13.2219 1.8872 13.2219C1.98113 13.2219 2.04766 13.1945 2.0868 13.1397C2.12594 13.0823 2.14551 13.0105 2.14551 12.9244C2.14551 12.7862 2.1142 12.6727 2.05158 12.5839C1.98896 12.4952 1.90546 12.4065 1.8011 12.3178L1.40189 11.9656C1.2897 11.869 1.19968 11.7621 1.13185 11.6446C1.06662 11.5246 1.034 11.3772 1.034 11.2024C1.034 10.9519 1.10706 10.7588 1.25317 10.6232C1.39929 10.4875 1.59889 10.4196 1.85198 10.4196C2.0007 10.4196 2.12463 10.4431 2.22378 10.4901C2.32293 10.5344 2.4012 10.5971 2.45861 10.6779C2.51862 10.7588 2.56297 10.8515 2.59167 10.9558C2.62038 11.0576 2.63864 11.1659 2.64647 11.2807L2.15333 11.3668C2.14812 11.2676 2.13637 11.1789 2.11811 11.1006C2.10246 11.0224 2.07245 10.961 2.02809 10.9167C1.98635 10.8723 1.92373 10.8502 1.84023 10.8502C1.75413 10.8502 1.6876 10.8789 1.64063 10.9363C1.59628 10.991 1.5741 11.0602 1.5741 11.1437C1.5741 11.2507 1.59628 11.3394 1.64063 11.4098C1.68499 11.4777 1.74891 11.5481 1.83241 11.6212L2.2277 11.9695C2.35815 12.0791 2.46904 12.2082 2.56036 12.3569C2.65429 12.5031 2.70126 12.6805 2.70126 12.8892C2.70126 13.0405 2.66734 13.1749 2.5995 13.2923C2.53427 13.4097 2.44165 13.5024 2.32163 13.5702C2.20421 13.6354 2.06593 13.6681 1.90677 13.6681ZM3.69982 13.6681C3.4676 13.6681 3.28496 13.6224 3.15189 13.5311C3.02143 13.4397 2.93011 13.3158 2.87793 13.1593C2.82574 13.0001 2.79965 12.8175 2.79965 12.6113V11.4803C2.79965 11.2637 2.82574 11.0758 2.87793 10.9167C2.93011 10.7575 3.02143 10.6349 3.15189 10.5488C3.28496 10.4627 3.4676 10.4196 3.69982 10.4196C3.91899 10.4196 4.08989 10.4575 4.21252 10.5331C4.33776 10.6062 4.42647 10.7119 4.47865 10.8502C4.53084 10.9884 4.55693 11.1489 4.55693 11.3315V11.5977H4.00117V11.3237C4.00117 11.235 3.99596 11.1541 3.98552 11.0811C3.97769 11.008 3.9529 10.9506 3.91116 10.9089C3.87202 10.8645 3.80288 10.8423 3.70373 10.8423C3.60458 10.8423 3.53152 10.8658 3.48456 10.9128C3.4402 10.9571 3.4115 11.0184 3.39846 11.0967C3.38541 11.1724 3.37889 11.2585 3.37889 11.355V12.7327C3.37889 12.8475 3.38802 12.9427 3.40628 13.0184C3.42455 13.0914 3.45716 13.1475 3.50413 13.1867C3.5537 13.2232 3.62024 13.2415 3.70373 13.2415C3.80027 13.2415 3.86811 13.2193 3.90724 13.1749C3.94899 13.128 3.97508 13.0666 3.98552 12.991C3.99596 12.9153 4.00117 12.8305 4.00117 12.7366V12.4509H4.55693V12.7053C4.55693 12.8931 4.53214 13.0601 4.48257 13.2062C4.43299 13.3497 4.34558 13.4632 4.22034 13.5467C4.09771 13.6276 3.9242 13.6681 3.69982 13.6681ZM4.77234 13.625V10.4549H5.34766V11.7816H5.99343V10.4549H6.57266V13.625H5.99343V12.1926H5.34766V13.625H4.77234ZM6.86203 13.625V10.4549H8.19271V10.8619H7.44127V11.7738H8.03225V12.1769H7.44127V13.2258H8.20054V13.625H6.86203ZM8.34039 13.625V10.4549H9.08792C9.34623 10.4549 9.54713 10.4901 9.69064 10.5605C9.83675 10.631 9.93981 10.7393 9.99982 10.8854C10.0624 11.0315 10.0938 11.2167 10.0938 11.4411V12.5996C10.0938 12.8292 10.0624 13.021 9.99982 13.1749C9.93981 13.3263 9.83805 13.4397 9.69455 13.5154C9.55365 13.5885 9.35927 13.625 9.1114 13.625H8.34039ZM8.91963 13.2219H9.09575C9.22881 13.2219 9.32405 13.1984 9.38145 13.1514C9.43885 13.1045 9.47407 13.0366 9.48712 12.9479C9.50017 12.8566 9.50669 12.7457 9.50669 12.6153V11.402C9.50669 11.2741 9.49756 11.1711 9.47929 11.0928C9.46103 11.0145 9.4232 10.9571 9.36579 10.9206C9.30839 10.8841 9.21577 10.8658 9.08792 10.8658H8.91963V13.2219ZM11.1921 13.6681C10.9573 13.6681 10.7746 13.625 10.6442 13.5389C10.5137 13.4528 10.4237 13.3302 10.3741 13.171C10.3246 13.0118 10.2998 12.8214 10.2998 12.5996V10.4549H10.8634V12.6661C10.8634 12.7653 10.8699 12.8592 10.8829 12.9479C10.896 13.034 10.926 13.1045 10.9729 13.1593C11.0225 13.2114 11.0956 13.2375 11.1921 13.2375C11.2939 13.2375 11.3669 13.2114 11.4113 13.1593C11.4582 13.1045 11.4882 13.034 11.5013 12.9479C11.517 12.8592 11.5248 12.7653 11.5248 12.6661V10.4549H12.0844V12.5996C12.0844 12.8214 12.0597 13.0118 12.0101 13.171C11.9605 13.3302 11.8705 13.4528 11.74 13.5389C11.6122 13.625 11.4295 13.6681 11.1921 13.6681ZM12.3443 13.625V10.4549H12.9236V13.2258H13.6907V13.625H12.3443ZM13.7959 13.625V10.4549H15.1266V10.8619H14.3752V11.7738H14.9662V12.1769H14.3752V13.2258H15.1344V13.625H13.7959Z" fill="white"/>
</g>
<defs>
<clipPath id="clip0_347_39781">
<rect width="16" height="16" fill="white"/>
</clipPath>
<clipPath id="clip1_347_39781">
<rect width="7.05644" height="7.04436" fill="white" transform="translate(4.50391 1.3125)"/>
</clipPath>
</defs>
</svg>
